<svg id="svg2" xmlns="http://www.w3.org/2000/svg" viewBox="0 0 962 744"><style>.st0{fill:#fff;stroke:#000}.st1{stroke-linejoin:round;stroke-width:3.5}.st1,.st2{fill:#fff;stroke:#000}.st2,.st3,.st4{stroke-width:3.5}.st3,.st4,.st5{stroke:#000}.st3{fill:#f8f8ff}.st3,.st4,.st5{stroke-linejoin:round}.st4{fill:red}.st5{fill:none;stroke-width:6.2}</style><path id="path3204" class="st0" d="M729.6 121.1l35.8 1.5 65.8-15.4 40.9 31.4-4.4 16.1 10.2 3.7 25.6 64.3 29.2.7 24.9 38.7-77.5 20.5-2.9 24.1-17.5-13.9-45.3 88.5-96.5-7.3 11.7-252.9z"/><path id="path3202" class="st1" d="M747.9 320.7L775 336l9.5 29.2 9.5 7.3 28.5-4.4 9.5 8.8-13.9 32.9-57 68 5.1 48.3-98-8.8L658 312.6l89.9 8.1z"/><path id="path3200" class="st2" d="M603.9 118.2l27.8 24.9 46.8 16.8 5.8-17.5 46.1-20.5 16.1 24.9v25.6l-30.7 114.8-76 10.2-91.4-82.6 8.8-73.8 46.7-22.8z"/><path id="path3198" class="st0" d="M367 49.4l21.2-28.5 82.6-12.4 87 16.8 5.8 51.9 13.2 9.5L549 213.2l-239-24.1 57-139.7z"/><path id="path3196" class="st1" d="M519.8 162l13.2-4.4 2.9-7.3-1.5-2.9 35.1-65.8L593.7 94l11 24.1-13.9 15.4 11.7 16.1-11 27.8 19 97.2-115.5 1.5-21.2-90.7 46-23.4z"/><path id="path3194" class="st0" d="M302.7 552.4l8 25.6v25.6l9.5-2.9 21.2 37.3-11.7 18.3 17.5 12.4L367 646l57 43.9 90-118.4-109-65.8-102.3 46.7z"/><path id="path3192" class="st2" d="M332.7 548.8l-23.4 26.3-11.7 3.7-31.4 21.9-21.2 54.1-22.7 17.5-5.8-4.4-4.4-38 19-38.7 8.8-9.5-10.3-22.7h-7.3L196 528.3l29.2-71.6L299 464l33.7 84.8z"/><path id="path3190" class="st2" d="M656.2 452.3l54.8 52.6 18.3-4.4 36.2 13.5 3.7 22.3-11 6.9-14.6 80.4-15.4 1.1-4 25.2-33.3 24.9 9.5 35.5-54.5 11.3-16.1-19.4-19.4 19.4-24.1-79.6-138.9-177.3 208.8-12.4z"/><path id="path3188" class="st2" d="M496.4 495.8l27.6 40.5 4.7-2.7 18.9 25v18.9l10.8-6.7 18.2 40.5 8.8 8.8 8.1 40.5-27-14.8-28.3 15.5-.7 10.8-41.8 10.8-1.3 10.8-35.1 46.3-21.6-16.9-20.2-6.7-5.4-34.4 16.2-7.4-4-32.4 35.7-13.5-37.8-127.5 54-20.9 20.2 15.5z"/><path id="path3186" class="st2" d="M652.7 272.5l25-13.6 11.4 5.3 36-38.6-2.6-34.2 24.6-28.1 2.2 23.3-1.3 23.7-5.3 7.9 18.9 11.9 22.4-3.5 10.1 21.9-26.8 44.3-6.6 35.1-31.2-8.8-45.8 12.5-31-59.1z"/><path id="path3184" class="st1" d="M556.2 256.3l47.8-9.2 27.2 1.8-4.4-13.6 7.5-1.3 20.2 17.1 9.7 43.5 22.4 8.8 17.1 32.9-72.4 39.5-99.6-67.2 24.5-52.3z"/><path id="path3182" class="st1" d="M616.7 460.4l7.5-7.5 33.4 33.4L676 471l-4.4-5.3 12.3-13.6-.9-21.9-7.5-5.7 1.3-17.6 18.4-12.3 11.9.4 12.3-11-1.8-61.5-32.9 5.7-18.4 21.9-57.9 5.7-32.9-26.3-27.7 50.9 68.9 80z"/><path id="path3180" class="st3" d="M561.5 268.2l-.9 22.7 9.6 13 1.6 13 11.8 5.3 6.5 18.9-6.5.3-6.6 9.6 4 14.3-3.4 11.5-86.3 1.6-4-95.6 74.2-14.6z"/><path id="path3178" class="st1" d="M493.5 321.5l5.6-27.9 31-5 23.3-18 7.4-2.5.3-12.7-13-13.3-18.6-1.6-37.2-40.7-56.2 8.4 14.6 92.2 42.8 21.1z"/><path id="path3176" class="st1" d="M446.4 218.1l50.5 51.4-10.5 3.1-2.2 11.4-9.7 10.1 16.2 25.5-62.3 20.2-21.5-121.2 39.5-.5z"/><path id="path3174" class="st1" d="M455.2 323l18-10.5 9.7 6.1 6.6-4 5.3-.4 5.7 15.8-10.5 18-31.6-2.6-3.2-22.4z"/><path id="path3172" class="st2" d="M300.7 477.1l-3.1 13.2 12.3 40.4-5.7 14.9 36.9 29.4 12.3-14.5 19.8 3.5 17.1-14.5 11.4 7.5 35.1-3.5 7.9-16.7-18.9-79.9-94.8-3.5-30.3 23.7z"/><path id="path3170" class="st1" d="M493.4 481.9l37.3 9.7 18-5.7 15.4 8.3-4.8 6.6 14 7.9 40.8-29.8 11.9 8.8 4.4-16.7-11-7.5.4-7.9-24.6-32.5.4-13.2 9.7-11.4-36.9 4-11-24.6-27.2-21.5-22.8 14.9-14 110.6z"/><path id="path3168" class="st4" d="M462.7 340.6l15.4-1.8 14.5 3.5 18.9 8.8 21.5-15.4 14.5 8.3v23.3l-22.4 3.5.4 32.9 11.4 30.3-7 8.3-11.4-.9-9.2 29.4-8.8 6.1-3.5 19.8-48.3-67.6 14-88.5z"/><path id="path3166" class="st1" d="M360.1 153.9l158.6-.3 9.3 5.3-9 22.7-3.1 20.2-9 13-33.5 4.3-10.2 16.5-16.8-16.5-79.5 21.7-6.8-86.9z"/><path id="path3164" class="st1" d="M423.1 499.1L416 510l25.5 6.8 16.1-23.6 39.4 4.3-28.6-57.7 13-18.3-3.7-12.4-17.4-27 6.5-14.3-7.4-7.4 4-19.9-37.9-4.3-20.1 77.8 17.7 85.1z"/><path id="path3162" class="st1" d="M257.9 410.3l42.8 67.7 29.2-10.2 13.7 3.4 23.9-10.6 1.9 19.6 7.1-2.5 1.6 12.7 25.8 9.3 2.2-3.4 17.4 4 6.8-6.8.9-32.9-17.1-42.5 18.9-17.7 3.7-20.2-77-18.6-101.8 48.7z"/><path id="path3160" class="st2" d="M383.7 378l53.1 3 11-41.3 12.9.2-2.3-19.8-50.6-45.2-89.4-.1L383.7 378z"/><path id="path3158" class="st1" d="M372.2 222.9L420 226l1.8 24.6 23.7 32.9 13.2 38.2-18.4 7-20.6-13.2-11.4-27.2-36-2.2-12.3 7.5-38.6-47.8 50.8-22.9z"/><path id="path3156" class="st1" d="M233.5 114.1l49.6-11.9 9.7-28.1 18.9-.9 32-19.8 25.9-5.3v14l32.5 8.8 2.6 18.4 26.8 27.2-18.4 29 6.1 10.1-7.5 21.9-8.8-11.4-5.7 11.4.4 19.3-10.5 21.1-33.4 34.7H306l-72.5-138.5z"/><path id="path3154" class="st1" d="M338 291l1.8 20.2 16.2 4.4 22.8 42.6h14.5l9.7-9.2 6.6 30.7-56.6 24.1-40.8-86.9L338 291z"/><path id="path3152" class="st1" d="M334.9 405.6l19.8 17.1 23.3-4 3.1-21.5-43.5-43.5-11-32.9 4-38.2-69.4 4 43.5 110.6 30.2 8.4z"/><path id="path3150" class="st1" d="M267.3 161.9l29.8 41.3-5.3 9.2 7 21.1 4-7 11.9 2.6 49.2 61.9-4.4 11.9-17.1-6.1-4.8 7-38.6-3.5-24.1 16.7-91.9-27.3 11.4-112.4 72.9-15.4z"/><path id="path3141" class="st1" d="M151.1 260.8l32.5-7.9 18.7 7.9 7.9-22.6 1.2-19.8 23.2-16.6 23.8 2-7.9-16.7 26.6-11.8-44.3-62-15.7-7.9-14.9 17.6-85.6 34.4 34.5 103.4z"/><path id="path3148" class="st2" d="M139.2 499.1l7.9 23.7 31.2 3.5 40.4 31.6 13.2-6.6 7.5-50.5-10.1-13.6 8.8-7.9 27.7 19.3 45.7-35.6-18.4-24.1 5.3-17.1 21.5.4 2.2-14 14-1.8-12.7-25-23.7-8.8L144 391.1l-4.8 108z"/><path id="path3146" class="st1" d="M65 442.9l7.9 34.7 23.3 14.9 15.4-5.3 15.4 14.9 24.1.4-3.5-15.8 21.1-18.4-23.3-9.7 8.8-18.4 15.4-4.4 38.2 2.6 41.7-53.6h15.4l14.9 22.4 17.6-1.3 1.8-16.7 9.7-9.2v-15.8l-31.2-21.1-202.8 2.6-9.9 97.2z"/><path id="path3133" class="st1" d="M10.7 417.5l67.2 31.4 36-36.5-8.9-17.7 9.8-33.5 10.8-3 27.6-53.1-48.2-12.8 24.6-10.8-1-7.9 22.6-11.8-36.4-108.3-44.3-8.9-11.8 10.8L15.5 125l1.9 55.4 21.7 82.4-17.7 30.4 11.8 59.6-22.5 64.7z"/><path id="path2161" class="st5" d="M17.5 126.4l41.8 32 13.9-12.5 45.9 11.1 80.7-30.6 16.7-20.9 16.7 8.4 50.1-12.5 8.4-27.8 22.3-1.4 30.6-19.5 23.7-4.2 20.9-29.2 80.7-11.1L559 24.9l4.2 52.9 30.6 16.7 11.1 23.7 27.8 25.1L680 160l4.2-18.1 44.5-19.5h39l64-13.9 41.8 32-7 16.7L879 160l25.1 64 27.8-1.4 26.4 40.4-77.9 21.4-2 26.6-18.6-18-38.4 76.8 8.9 7.9-13.8 35.4-56.1 65 8.9 59-10.8 5.9-14.8 81.7-16.7 1-2 24.6-34.4 25.6 10.8 36.4-55.1 10.8-15.7-19.7-20.7 21.7-16.7-62-27.6-17.7-27.6 16.7-1 9.8-41.3 11.8-1 11.8-36.4 46.3-23.6-19.7-18.7-6.9-3.9-34.4-44.3-36.4-19.7 25.6-19.7-12.8 12.8-19.7-21.7-36.4-9.8 3.9v-31.5l-13.8 4.9-27.6 21.7-22.6 55.1-23.6 17.7-6.6-6.7-3.2-34.6 18.7-40.3 8.9-8.9-10.9-22.7-8.9-1-41.3-32.5-32.5-3-5.9-19.7h-12.8l-14.8-16.7-15.7 5.9L73.5 480l-7.9-35.4L9.5 418l23.6-65-12.8-60L39 261.5l-22.6-84.6 1.1-50.5z"/><path id="path3144" class="st1" d="M126 359l22.4 7 7.5-3.5 11.4 10.5 18.4-12.7 7.9 7.5 46.1-2.2 9.7-9.7 12.3-.4 13.6 10.5 17.6-.9 3.5-11.9 7-6.6-5.3-32.5 5.3-15.4-14.9-7.5-11 12.7h-16.2V289l-20.6 10.1-11.4-25-27.2-14-18-7.9-32 8.3-21.9 12.7-.4 7-23.7 12.3 46.5 11.9L126 359z"/></svg>