<?xml version="1.0" encoding="utf-8"?>
<!-- Generator: Adobe Illustrator 21.1.0, SVG Export Plug-In . SVG Version: 6.00 Build 0)  -->
<svg version="1.1" id="svg2" xmlns:svg="http://www.w3.org/2000/svg"
	 xmlns="http://www.w3.org/2000/svg" xmlns:xlink="http://www.w3.org/1999/xlink" x="0px" y="0px" viewBox="0 0 962 744"
	 style="enable-background:new 0 0 962 744;" xml:space="preserve">
<style type="text/css">
	.st0{fill:#FFFFFF;stroke:#000000;}
	.st1{fill:#FFFFFF;stroke:#000000;stroke-width:3.5;stroke-linejoin:round;}
	.st2{fill:#FFFFFF;stroke:#000000;stroke-width:3.5;}
	.st3{fill:#F8F8FF;stroke:#000000;stroke-width:3.5;stroke-linejoin:round;}
	.st4{fill:#FF0000;stroke:#000000;stroke-width:3.5;stroke-linejoin:round;}
	.st5{fill:none;stroke:#000000;stroke-width:6.2;stroke-linejoin:round;}
</style>
<path id="path3204" class="st0" d="M729.6,121.1l35.8,1.5l65.8-15.4l40.9,31.4l-4.4,16.1l10.2,3.7l25.6,64.3l29.2,0.7l24.9,38.7
	l-77.5,20.5l-2.9,24.1l-17.5-13.9l-45.3,88.5l-96.5-7.3L729.6,121.1z"/>
<path id="path3202" class="st1" d="M747.9,320.7L775,336l9.5,29.2l9.5,7.3l28.5-4.4l9.5,8.8l-13.9,32.9l-57,68l5.1,48.3l-98-8.8
	L658,312.6L747.9,320.7z"/>
<path id="path3200" class="st2" d="M603.9,118.2l27.8,24.9l46.8,16.8l5.8-17.5l46.1-20.5l16.1,24.9v25.6l-30.7,114.8l-76,10.2
	l-91.4-82.6l8.8-73.8L603.9,118.2z"/>
<path id="path3198" class="st0" d="M367,49.4l21.2-28.5l82.6-12.4l87,16.8l5.8,51.9l13.2,9.5l-27.8,126.5L310,189.1L367,49.4z"/>
<path id="path3196" class="st1" d="M519.8,162l13.2-4.4l2.9-7.3l-1.5-2.9l35.1-65.8L593.7,94l11,24.1l-13.9,15.4l11.7,16.1l-11,27.8
	l19,97.2L495,276.1l-21.2-90.7L519.8,162z"/>
<path id="path3194" class="st0" d="M302.7,552.4l8,25.6v25.6l9.5-2.9l21.2,37.3l-11.7,18.3l17.5,12.4L367,646l57,43.9L514,571.5
	L405,505.7L302.7,552.4z"/>
<path id="path3192" class="st2" d="M332.7,548.8l-23.4,26.3l-11.7,3.7l-31.4,21.9l-21.2,54.1l-22.7,17.5l-5.8-4.4l-4.4-38l19-38.7
	l8.8-9.5L229.6,559h-7.3l-26.3-30.7l29.2-71.6L299,464L332.7,548.8z"/>
<path id="path3190" class="st2" d="M656.2,452.3l54.8,52.6l18.3-4.4l36.2,13.5l3.7,22.3l-11,6.9l-14.6,80.4l-15.4,1.1l-4,25.2
	l-33.3,24.9l9.5,35.5l-54.5,11.3l-16.1-19.4l-19.4,19.4L586.3,642L447.4,464.7L656.2,452.3z"/>
<path id="path3188" class="st2" d="M496.4,495.8l27.6,40.5l4.7-2.7l18.9,25v18.9l10.8-6.7l18.2,40.5l8.8,8.8l8.1,40.5l-27-14.8
	l-28.3,15.5l-0.7,10.8l-41.8,10.8l-1.3,10.8L459.3,740l-21.6-16.9l-20.2-6.7l-5.4-34.4l16.2-7.4l-4-32.4l35.7-13.5l-37.8-127.5
	l54-20.9L496.4,495.8z"/>
<path id="path3186" class="st2" d="M652.7,272.5l25-13.6l11.4,5.3l36-38.6l-2.6-34.2l24.6-28.1l2.2,23.3l-1.3,23.7l-5.3,7.9
	l18.9,11.9l22.4-3.5l10.1,21.9l-26.8,44.3l-6.6,35.1l-31.2-8.8l-45.8,12.5L652.7,272.5z"/>
<path id="path3184" class="st1" d="M556.2,256.3l47.8-9.2l27.2,1.8l-4.4-13.6l7.5-1.3l20.2,17.1l9.7,43.5l22.4,8.8l17.1,32.9
	l-72.4,39.5l-99.6-67.2L556.2,256.3z"/>
<path id="path3182" class="st1" d="M616.7,460.4l7.5-7.5l33.4,33.4L676,471l-4.4-5.3l12.3-13.6l-0.9-21.9l-7.5-5.7l1.3-17.6
	l18.4-12.3l11.9,0.4l12.3-11l-1.8-61.5l-32.9,5.7l-18.4,21.9l-57.9,5.7l-32.9-26.3l-27.7,50.9L616.7,460.4z"/>
<path id="path3180" class="st3" d="M561.5,268.2l-0.9,22.7l9.6,13l1.6,13l11.8,5.3l6.5,18.9l-6.5,0.3L577,351l4,14.3l-3.4,11.5
	l-86.3,1.6l-4-95.6L561.5,268.2z"/>
<path id="path3178" class="st1" d="M493.5,321.5l5.6-27.9l31-5l23.3-18l7.4-2.5l0.3-12.7l-13-13.3l-18.6-1.6l-37.2-40.7l-56.2,8.4
	l14.6,92.2L493.5,321.5z"/>
<path id="path3176" class="st1" d="M446.4,218.1l50.5,51.4l-10.5,3.1l-2.2,11.4l-9.7,10.1l16.2,25.5l-62.3,20.2l-21.5-121.2
	L446.4,218.1z"/>
<path id="path3174" class="st1" d="M455.2,323l18-10.5l9.7,6.1l6.6-4l5.3-0.4l5.7,15.8l-10.5,18l-31.6-2.6L455.2,323z"/>
<path id="path3172" class="st2" d="M300.7,477.1l-3.1,13.2l12.3,40.4l-5.7,14.9l36.9,29.4l12.3-14.5l19.8,3.5l17.1-14.5l11.4,7.5
	l35.1-3.5l7.9-16.7l-18.9-79.9l-94.8-3.5L300.7,477.1z"/>
<path id="path3170" class="st1" d="M493.4,481.9l37.3,9.7l18-5.7l15.4,8.3l-4.8,6.6l14,7.9l40.8-29.8l11.9,8.8l4.4-16.7l-11-7.5
	l0.4-7.9l-24.6-32.5l0.4-13.2l9.7-11.4l-36.9,4l-11-24.6l-27.2-21.5l-22.8,14.9L493.4,481.9z"/>
<path id="path3168" class="st4" d="M462.7,340.6l15.4-1.8l14.5,3.5l18.9,8.8l21.5-15.4l14.5,8.3v23.3l-22.4,3.5l0.4,32.9l11.4,30.3
	l-7,8.3l-11.4-0.9l-9.2,29.4l-8.8,6.1l-3.5,19.8l-48.3-67.6L462.7,340.6z"/>
<path id="path3166" class="st1" d="M360.1,153.9l158.6-0.3l9.3,5.3l-9,22.7l-3.1,20.2l-9,13l-33.5,4.3l-10.2,16.5l-16.8-16.5
	l-79.5,21.7L360.1,153.9z"/>
<path id="path3164" class="st1" d="M423.1,499.1l-7.1,10.9l25.5,6.8l16.1-23.6l39.4,4.3l-28.6-57.7l13-18.3l-3.7-12.4l-17.4-27
	l6.5-14.3l-7.4-7.4l4-19.9l-37.9-4.3L405.4,414L423.1,499.1z"/>
<path id="path3162" class="st1" d="M257.9,410.3l42.8,67.7l29.2-10.2l13.7,3.4l23.9-10.6l1.9,19.6l7.1-2.5l1.6,12.7l25.8,9.3
	l2.2-3.4l17.4,4l6.8-6.8l0.9-32.9l-17.1-42.5l18.9-17.7l3.7-20.2l-77-18.6L257.9,410.3z"/>
<path id="path3160" class="st2" d="M383.7,378l53.1,3l11-41.3l12.9,0.2l-2.3-19.8l-50.6-45.2l-89.4-0.1L383.7,378z"/>
<path id="path3158" class="st1" d="M372.2,222.9l47.8,3.1l1.8,24.6l23.7,32.9l13.2,38.2l-18.4,7l-20.6-13.2l-11.4-27.2l-36-2.2
	l-12.3,7.5l-38.6-47.8L372.2,222.9z"/>
<path id="path3156" class="st1" d="M233.5,114.1l49.6-11.9l9.7-28.1l18.9-0.9l32-19.8l25.9-5.3v14l32.5,8.8l2.6,18.4l26.8,27.2
	l-18.4,29l6.1,10.1l-7.5,21.9l-8.8-11.4l-5.7,11.4l0.4,19.3l-10.5,21.1l-33.4,34.7H306L233.5,114.1z"/>
<path id="path3154" class="st1" d="M338,291l1.8,20.2l16.2,4.4l22.8,42.6h14.5l9.7-9.2l6.6,30.7l-56.6,24.1l-40.8-86.9L338,291z"/>
<path id="path3152" class="st1" d="M334.9,405.6l19.8,17.1l23.3-4l3.1-21.5l-43.5-43.5l-11-32.9l4-38.2l-69.4,4l43.5,110.6
	L334.9,405.6z"/>
<path id="path3150" class="st1" d="M267.3,161.9l29.8,41.3l-5.3,9.2l7,21.1l4-7l11.9,2.6l49.2,61.9l-4.4,11.9l-17.1-6.1l-4.8,7
	l-38.6-3.5l-24.1,16.7L183,289.7l11.4-112.4L267.3,161.9z"/>
<path id="path3141" class="st1" d="M151.1,260.8l32.5-7.9l18.7,7.9l7.9-22.6l1.2-19.8l23.2-16.6l23.8,2l-7.9-16.7l26.6-11.8
	l-44.3-62l-15.7-7.9L202.2,123l-85.6,34.4L151.1,260.8z"/>
<path id="path3148" class="st2" d="M139.2,499.1l7.9,23.7l31.2,3.5l40.4,31.6l13.2-6.6l7.5-50.5l-10.1-13.6l8.8-7.9l27.7,19.3
	l45.7-35.6l-18.4-24.1l5.3-17.1l21.5,0.4l2.2-14l14-1.8l-12.7-25l-23.7-8.8L144,391.1L139.2,499.1z"/>
<path id="path3146" class="st1" d="M65,442.9l7.9,34.7l23.3,14.9l15.4-5.3l15.4,14.9l24.1,0.4l-3.5-15.8l21.1-18.4l-23.3-9.7
	l8.8-18.4l15.4-4.4l38.2,2.6l41.7-53.6h15.4l14.9,22.4l17.6-1.3l1.8-16.7l9.7-9.2v-15.8l-31.2-21.1l-202.8,2.6L65,442.9z"/>
<path id="path3133" class="st1" d="M10.7,417.5l67.2,31.4l36-36.5l-8.9-17.7l9.8-33.5l10.8-3l27.6-53.1l-48.2-12.8l24.6-10.8l-1-7.9
	l22.6-11.8l-36.4-108.3l-44.3-8.9l-11.8,10.8L15.5,125l1.9,55.4l21.7,82.4l-17.7,30.4l11.8,59.6L10.7,417.5z"/>
<path id="path2161" class="st5" d="M17.5,126.4l41.8,32l13.9-12.5l45.9,11.1l80.7-30.6l16.7-20.9l16.7,8.4l50.1-12.5l8.4-27.8
	l22.3-1.4l30.6-19.5l23.7-4.2l20.9-29.2l80.7-11.1l89.1,16.7l4.2,52.9l30.6,16.7l11.1,23.7l27.8,25.1l47.3,16.7l4.2-18.1l44.5-19.5
	h39l64-13.9l41.8,32l-7,16.7l12.5,2.8l25.1,64l27.8-1.4l26.4,40.4l-77.9,21.4l-2,26.6L859.8,293l-38.4,76.8l8.9,7.9l-13.8,35.4
	l-56.1,65l8.9,59l-10.8,5.9l-14.8,81.7l-16.7,1l-2,24.6l-34.4,25.6l10.8,36.4l-55.1,10.8l-15.7-19.7l-20.7,21.7l-16.7-62l-27.6-17.7
	L538,662.1l-1,9.8l-41.3,11.8l-1,11.8l-36.4,46.3l-23.6-19.7l-18.7-6.9l-3.9-34.4l-44.3-36.4L348.1,670l-19.7-12.8l12.8-19.7
	l-21.7-36.4l-9.8,3.9v-31.5l-13.8,4.9l-27.6,21.7l-22.6,55.1l-23.6,17.7l-6.6-6.7l-3.2-34.6l18.7-40.3l8.9-8.9L229,559.7l-8.9-1
	l-41.3-32.5l-32.5-3l-5.9-19.7h-12.8l-14.8-16.7l-15.7,5.9L73.5,480l-7.9-35.4L9.5,418l23.6-65l-12.8-60l18.7-31.5l-22.6-84.6
	L17.5,126.4z"/>
<path id="path3144" class="st1" d="M126,359l22.4,7l7.5-3.5l11.4,10.5l18.4-12.7l7.9,7.5l46.1-2.2l9.7-9.7l12.3-0.4l13.6,10.5
	l17.6-0.9l3.5-11.9l7-6.6l-5.3-32.5l5.3-15.4l-14.9-7.5l-11,12.7h-16.2v-14.9l-20.6,10.1l-11.4-25l-27.2-14l-18-7.9l-32,8.3
	l-21.9,12.7l-0.4,7l-23.7,12.3l46.5,11.9L126,359z"/>
</svg>
